<svg width="40" height="40" viewBox="0 0 40 40" fill="none" xmlns="http://www.w3.org/2000/svg">
<path d="M35 11.2133C33.8906 11.7083 32.7061 12.0383 31.4618 12.1883C32.7361 11.4233 33.7106 10.2233 34.1604 8.78325C32.976 9.48825 31.6567 9.99825 30.2474 10.2833C29.1229 9.08325 27.5337 8.33325 25.7496 8.33325C22.3463 8.33325 19.6027 11.0933 19.6027 14.4833C19.6027 14.9633 19.6627 15.4283 19.7676 15.8933C14.6552 15.6383 10.1274 13.1933 7.08396 9.45825C6.57421 10.3733 6.27436 11.4233 6.27436 12.5483C6.27436 14.6783 7.35382 16.5682 9.01799 17.6782C7.9985 17.6482 7.05397 17.3633 6.21439 16.9133C6.21439 16.9433 6.21439 16.9583 6.21439 16.9883C6.21439 19.9733 8.32834 22.4632 11.1469 23.0182C10.6372 23.1532 10.0825 23.2283 9.52774 23.2283C9.13793 23.2283 8.74813 23.1832 8.37331 23.1232C9.15292 25.5682 11.4318 27.3532 14.1154 27.3982C12.0165 29.0482 9.36282 30.0382 6.46927 30.0382C5.97451 30.0382 5.47976 30.0082 5 29.9482C7.72864 31.6882 10.952 32.7082 14.4303 32.7082C25.7496 32.7082 31.9265 23.3332 31.9265 15.2033C31.9265 14.9333 31.9265 14.6783 31.9115 14.4083C33.1259 13.5383 34.1754 12.4583 35 11.2133Z" fill="#21212E"/>
</svg>
